HIERARCHY
ROOT hip
{
	OFFSET 0.000000 0.000000 0.000000
	CHANNELS 6 Xposition Yposition Zposition Zrotation Yrotation Xrotation 
	JOINT lhipjoint
	{
		OFFSET 0.000000 0.000000 0.000000
		CHANNELS 3 Zrotation Yrotation Xrotation
		JOINT lfemur
		{
			OFFSET 1.363060 -1.794630 0.839290
			CHANNELS 3 Zrotation Yrotation Xrotation
			JOINT ltibia
			{
				OFFSET 2.448110 -6.726130 0.000000
				CHANNELS 3 Zrotation Yrotation Xrotation
				JOINT lfoot
				{
					OFFSET 2.562200 -7.039590 0.000000
					CHANNELS 3 Zrotation Yrotation Xrotation
					JOINT ltoes
					{
						OFFSET 0.157640 -0.433110 2.322550
						CHANNELS 3 Zrotation Yrotation Xrotation
						End Site
						{
							OFFSET 0.000000 0.000000 0.000000
						}
					}
				}
			}
		}
	}
	JOINT rhipjoint
	{
		OFFSET 0.000000 0.000000 0.000000
		CHANNELS 3 Zrotation Yrotation Xrotation
		JOINT rfemur
		{
			OFFSET -1.305520 -1.794630 0.839290
			CHANNELS 3 Zrotation Yrotation Xrotation
			JOINT rtibia
			{
				OFFSET -2.542530 -6.985550 0.000000
				CHANNELS 3 Zrotation Yrotation Xrotation
				JOINT rfoot
				{
					OFFSET -2.568260 -7.056230 0.000000
					CHANNELS 3 Zrotation Yrotation Xrotation
					JOINT rtoes
					{
						OFFSET -0.164730 -0.452590 2.363150
						CHANNELS 3 Zrotation Yrotation Xrotation
						End Site
						{
							OFFSET 0.000000 0.000000 0.000000
						}
					}
				}
			}
		}
	}
	JOINT lowerback
	{
		OFFSET 0.000000 0.000000 0.000000
		CHANNELS 3 Zrotation Yrotation Xrotation
		JOINT upperback
		{
			OFFSET 0.028270 2.035590 -0.193380
			CHANNELS 3 Zrotation Yrotation Xrotation
			JOINT thorax
			{
				OFFSET 0.056720 2.048850 -0.042750
				CHANNELS 3 Zrotation Yrotation Xrotation
				JOINT lowerneck
				{
					OFFSET 0.000000 0.000000 0.000000
					CHANNELS 3 Zrotation Yrotation Xrotation
					JOINT upperneck
					{
						OFFSET -0.054170 1.746240 0.172020
						CHANNELS 3 Zrotation Yrotation Xrotation
						JOINT head
						{
							OFFSET 0.104070 1.761360 -0.123970
							CHANNELS 3 Zrotation Yrotation Xrotation
							End Site
							{
								OFFSET 0.000000 0.000000 0.000000
							}
						}
					}
				}
				JOINT lclavicle
				{
					OFFSET 0.000000 0.000000 0.000000
					CHANNELS 3 Zrotation Yrotation Xrotation
					JOINT lhumerus
					{
						OFFSET 3.362410 1.200890 -0.311210
						CHANNELS 3 Zrotation Yrotation Xrotation
						JOINT lradius
						{
							OFFSET 4.983000 -0.000000 -0.000000
							CHANNELS 3 Zrotation Yrotation Xrotation
							JOINT lwrist
							{
								OFFSET 3.483560 -0.000000 -0.000000
								CHANNELS 3 Zrotation Yrotation Xrotation
								JOINT lhand
								{
									OFFSET 0.000000 0.000000 0.000000
									CHANNELS 3 Zrotation Yrotation Xrotation
									JOINT lfingers
									{
										OFFSET 0.715260 -0.000000 -0.000000
										CHANNELS 3 Zrotation Yrotation Xrotation
										End Site
										{
											OFFSET 0.000000 0.000000 0.000000
										}
									}
								}
								JOINT lthumb
								{
									OFFSET 0.000000 0.000000 0.000000
									CHANNELS 3 Zrotation Yrotation Xrotation
									End Site
									{
										OFFSET 0.000000 0.000000 0.000000
									}
								}
							}
						}
					}
				}
				JOINT rclavicle
				{
					OFFSET 0.000000 0.000000 0.000000
					CHANNELS 3 Zrotation Yrotation Xrotation
					JOINT rhumerus
					{
						OFFSET -3.136600 1.374050 -0.404650
						CHANNELS 3 Zrotation Yrotation Xrotation
						JOINT rradius
						{
							OFFSET -5.241900 -0.000000 -0.000000
							CHANNELS 3 Zrotation Yrotation Xrotation
							JOINT rwrist
							{
								OFFSET -3.444170 -0.000000 -0.000000
								CHANNELS 3 Zrotation Yrotation Xrotation
								JOINT rhand
								{
									OFFSET 0.000000 0.000000 0.000000
									CHANNELS 3 Zrotation Yrotation Xrotation
									JOINT rfingers
									{
										OFFSET -0.622530 -0.000000 -0.000000
										CHANNELS 3 Zrotation Yrotation Xrotation
										End Site
										{
											OFFSET 0.000000 0.000000 0.000000
										}
									}
								}
								JOINT rthumb
								{
									OFFSET 0.000000 0.000000 0.000000
									CHANNELS 3 Zrotation Yrotation Xrotation
									End Site
									{
										OFFSET 0.000000 0.000000 0.000000
									}
								}
							}
						}
					}
				}
			}
		}
	}
}
MOTION
Frames: 11
Frame Time: 0.008333
-0.320421 17.123133 2.754707 -179.047705 -14.967870 -178.787754 -4.183901 -3.677213 -0.950252 -13.869833 6.056176 -10.435471 3.196157 10.757422 28.692784 -0.708852 -21.232869 -4.256150 0.226900 3.066100 8.462700 2.786868 4.289434 -2.909649 14.010579 -3.540900 -9.016625 -4.685364 -12.461293 32.929097 -0.845173 2.193595 -17.673662 -3.227200 11.054100 -32.462600 -3.255324 1.616162 0.849103 0.403751 2.353289 -3.957470 -4.408073 0.620650 8.807107 -5.697721 -8.050668 -11.046321 12.524737 -15.322651 24.465279 2.374900 -6.961100 7.624700 -4.369087 -5.060312 3.452047 -71.904168 -9.511316 29.761263 12.358418 -25.401638 -3.463499 0.860842 1.151576 38.991686 24.694591 -10.946577 -5.709300 -7.125000 0.000000 0.000000 -1.726900 16.245000 1.175400 4.711732 3.913498 2.559295 82.283479 -11.226705 -45.494275 2.117372 5.767733 -0.404066 0.739099 -0.125310 58.578575 0.702618 10.257296 0.035400 7.125000 0.000000 0.000000 19.171300 -20.484300 11.926000 
-0.337083 17.121700 2.778804 -179.093841 -15.103693 -179.184888 -4.175264 -3.693726 -0.981061 -14.046210 5.675637 -9.772465 3.159903 10.737082 28.512116 -0.651336 -20.832047 -4.354384 0.231200 3.095100 8.543500 2.827119 4.286992 -2.900584 13.864148 -2.561465 -8.752283 -4.863957 -12.737605 33.896731 -0.796371 1.264071 -17.706629 -3.568500 11.562900 -34.202800 -3.328919 1.597318 1.549593 0.373672 2.263426 -3.903185 -4.648512 0.574427 8.741958 -5.673882 -8.229300 -11.299167 12.454590 -15.495359 24.358040 2.332500 -7.029700 7.692000 -4.445259 -5.064741 3.465545 -71.034082 -9.788222 31.829967 13.650623 -26.732641 -3.859226 0.860574 1.199480 37.625200 25.047211 -11.215175 -5.943400 -7.125000 0.000000 0.000000 -1.506100 15.861200 1.037500 4.679393 3.947744 2.551470 82.462919 -11.244057 -45.165295 2.279400 5.716337 -0.398649 0.778881 -0.137132 59.136683 1.263162 10.409762 0.127100 7.125000 0.000000 0.000000 19.519900 -20.374600 12.222200 
-0.353655 17.120893 2.803169 -179.108863 -15.199943 -179.639958 -4.168730 -3.714940 -1.018131 -14.202695 5.260996 -8.978558 3.106709 10.700201 28.246613 -0.582604 -20.314100 -4.462098 0.233500 3.110300 8.586000 2.869685 4.272556 -2.878561 13.748649 -1.556855 -8.589465 -5.094209 -13.073080 35.115263 -0.745744 0.426393 -17.702436 -3.835700 11.938500 -35.514700 -3.374218 1.589222 2.292909 0.352868 2.179070 -3.844023 -4.824628 0.534531 8.671679 -5.730979 -8.397698 -11.524832 12.378205 -15.644657 24.253782 2.307300 -7.093900 7.758100 -4.517808 -5.071828 3.477642 -70.274011 -10.204754 33.441422 14.826990 -27.910855 -4.246755 0.865464 1.240436 36.546080 25.439824 -11.512264 -6.205000 -7.125000 0.000000 0.000000 -1.263700 15.441000 0.881900 4.667058 3.982971 2.552766 82.543700 -11.382124 -43.851846 2.483616 5.949164 -0.397671 0.800349 -0.138463 58.961702 1.646242 10.652582 0.194300 7.125000 0.000000 0.000000 19.740800 -20.162800 12.479700 
-0.369510 17.124118 2.828251 -179.145806 -15.304428 179.865477 -4.163441 -3.738058 -1.059415 -14.397151 4.859944 -8.074168 3.031178 10.633023 27.855011 -0.510999 -19.738853 -4.552449 0.235100 3.120900 8.615400 2.916560 4.245905 -2.842204 13.632890 -0.385781 -8.489489 -5.391365 -13.474730 36.628886 -0.702172 -0.295041 -17.756307 -3.913800 12.044800 -35.890800 -3.460417 1.565736 3.095873 0.342965 2.068097 -3.783816 -4.906001 0.480887 8.571548 -5.959830 -8.512358 -11.697948 12.406181 -15.732154 24.106068 2.359600 -7.137900 7.819500 -4.590338 -5.091608 3.490140 -69.627749 -10.704634 34.671783 15.980084 -29.038472 -4.649208 0.873910 1.274855 35.521003 25.710015 -11.868124 -6.460900 -7.125000 0.000000 0.000000 -1.116200 14.973800 0.790000 4.664476 4.008408 2.558188 82.514975 -11.558457 -42.201509 2.690750 6.271236 -0.397311 0.806929 -0.128508 58.594527 1.832646 10.937142 0.233200 7.125000 0.000000 0.000000 19.832200 -19.902800 12.669600 
-0.384201 17.131374 2.854050 -179.182016 -15.381945 179.307904 -4.157164 -3.766658 -1.104218 -14.582321 4.601093 -7.075512 2.931466 10.540113 27.343574 -0.452785 -19.214843 -4.551393 0.234100 3.113800 8.595700 2.968038 4.206694 -2.789460 13.540236 0.938607 -8.474717 -5.766792 -13.941522 38.462907 -0.644689 -0.951000 -17.595712 -3.709400 11.763300 -34.899500 -3.572780 1.539226 3.995131 0.336599 1.940426 -3.723227 -4.960130 0.416840 8.423418 -6.141523 -8.629266 -11.850991 12.370479 -15.807212 23.978456 2.379400 -7.175300 7.873100 -4.656217 -5.107997 3.498107 -69.035239 -11.221134 35.562575 17.144435 -30.152400 -5.084608 0.881976 1.310712 34.619921 26.049033 -12.185771 -6.725000 -7.125000 0.000000 0.000000 -0.919000 14.535600 0.659000 4.673463 4.054026 2.569082 82.451747 -11.796658 -40.089545 2.887065 6.746532 -0.399843 0.801725 -0.117751 57.901735 1.924811 11.189586 0.256700 7.125000 0.000000 0.000000 19.864800 -19.660900 12.808900 
-0.399071 17.142840 2.880923 -179.199853 -15.476388 178.735558 -4.146526 -3.795988 -1.157206 -14.752886 4.392405 -6.026708 2.819244 10.429982 26.759425 -0.405598 -18.711650 -4.422592 0.247700 3.202300 8.842400 3.025589 4.142868 -2.712379 13.470508 2.233003 -8.712809 -6.223795 -14.456592 40.603784 -0.536095 -1.769787 -16.875336 -3.412400 11.334400 -33.416200 -3.659274 1.515753 4.911058 0.323061 1.800479 -3.657119 -5.085005 0.350355 8.286568 -6.252207 -8.708598 -11.981399 12.387403 -15.845222 23.793209 2.408100 -7.190000 7.892600 -4.720426 -5.119739 3.509028 -68.430151 -11.854298 36.059114 18.274871 -31.206462 -5.540604 0.894202 1.343821 33.851386 26.484842 -12.588781 -7.064500 -7.125000 0.000000 0.000000 -0.667400 13.986200 0.486300 4.672077 4.100234 2.582397 82.460068 -12.013880 -37.919844 3.064061 7.265889 -0.403500 0.782711 -0.105609 57.150539 1.824706 11.373657 0.245100 7.125000 0.000000 0.000000 19.781200 -19.471600 12.837800 
-0.412507 17.151887 2.907796 -179.212878 -15.531502 178.174812 -4.129883 -3.822213 -1.215347 -14.901758 4.335029 -5.044346 2.704475 10.317244 26.164518 -0.374346 -18.324706 -4.226310 0.253100 3.236900 8.939000 3.089918 4.052262 -2.609132 13.410902 3.525554 -9.216648 -6.765969 -15.001472 43.026042 -0.411938 -2.624066 -15.958809 -3.073300 10.812800 -31.651200 -3.748396 1.518670 5.818203 0.295867 1.680314 -3.587317 -5.286722 0.294793 8.160801 -6.233911 -8.787813 -12.093175 12.405757 -15.893515 23.571219 2.411100 -7.203200 7.878700 -4.783952 -5.123805 3.521216 -67.746340 -12.569260 36.351827 19.421394 -32.251930 -6.035962 0.904614 1.380656 33.032152 27.109480 -13.052457 -7.504600 -7.125000 0.000000 0.000000 -0.297600 13.333200 0.221000 4.664406 4.153686 2.597506 82.550041 -12.220734 -35.663035 3.223266 7.844835 -0.408822 0.751168 -0.089357 56.293658 1.538077 11.554713 0.199300 7.125000 0.000000 0.000000 19.579300 -19.275800 12.781400 
-0.424511 17.156635 2.935655 -179.225389 -15.585181 177.613369 -4.111270 -3.844982 -1.278185 -15.030303 4.356374 -4.120470 2.596665 10.217655 25.614130 -0.350809 -18.006500 -4.009063 0.260400 3.283100 9.067800 3.160450 3.945942 -2.490035 13.326308 4.780914 -9.922526 -7.385007 -15.559627 45.676323 -0.294764 -3.304680 -14.897258 -2.655400 10.115200 -29.350600 -3.845686 1.530862 6.719284 0.264973 1.559437 -3.507864 -5.509401 0.236417 8.075900 -6.133955 -8.860493 -12.198915 12.417942 -15.924830 23.290131 2.397600 -7.204400 7.825600 -4.843811 -5.114089 3.534082 -67.054316 -13.420091 36.498172 20.587124 -33.289293 -6.569692 0.907485 1.425760 32.012505 27.920704 -13.529036 -8.032200 -7.125000 0.000000 0.000000 0.191500 12.622800 -0.145000 4.659190 4.199540 2.616950 82.631427 -12.367077 -33.371243 3.371608 8.424594 -0.413830 0.702296 -0.073148 55.252178 1.087444 11.643580 0.120700 7.125000 0.000000 0.000000 19.282900 -19.150400 12.621000 
-0.434992 17.158606 2.964679 -179.221599 -15.643369 177.096823 -4.091935 -3.855784 -1.345974 -15.138430 4.332415 -3.309162 2.510042 10.151296 25.186890 -0.329715 -17.732313 -3.834390 0.264200 3.306900 9.134300 3.235407 3.816855 -2.351505 13.215413 5.998643 -10.872203 -8.079579 -16.108406 48.517402 -0.193585 -3.782388 -13.743853 -2.170700 9.212900 -26.463500 -3.951242 1.550286 7.547352 0.235381 1.443918 -3.419474 -5.717377 0.177883 8.065647 -6.027024 -8.945030 -12.363455 12.429501 -15.969640 23.019262 2.377900 -7.208000 7.784600 -4.905214 -5.089963 3.544590 -66.323101 -14.380301 36.592993 21.846526 -34.382789 -7.167262 0.896599 1.477672 30.794284 28.792845 -13.889489 -8.544000 -7.125000 0.000000 0.000000 0.730500 12.020400 -0.562400 4.659238 4.228933 2.640148 82.699581 -12.436721 -30.988658 3.452874 9.087763 -0.422925 0.649371 -0.070766 53.853423 0.680511 11.616762 0.046300 7.125000 0.000000 0.000000 19.020600 -19.121800 12.441100 
-0.443860 17.157800 2.993881 -179.260416 -15.679073 176.619956 -4.073652 -3.853907 -1.413073 -15.284883 4.303750 -2.601973 2.442888 10.117015 24.877373 -0.309747 -17.485825 -3.676730 0.265300 3.313300 9.152200 3.320413 3.672783 -2.196234 13.006714 7.172808 -12.024320 -8.842528 -16.634094 51.514471 -0.113079 -4.063132 -12.540723 -1.711400 8.237000 -23.436400 -4.132085 1.572947 8.336514 0.204998 1.327533 -3.333900 -5.877361 0.111418 8.060298 -5.940295 -9.015266 -12.556428 12.428738 -16.003051 22.826738 2.353900 -7.204700 7.776400 -4.965175 -5.059819 3.549805 -65.625155 -15.415006 36.600681 23.156959 -35.481006 -7.806659 0.872689 1.532973 29.423986 29.593011 -14.081525 -8.959200 -7.125000 0.000000 0.000000 1.238900 11.612300 -0.964400 4.663859 4.254977 2.664274 82.708219 -12.462211 -28.798797 3.492093 9.701325 -0.432553 0.594974 -0.074409 52.580589 0.255528 11.527588 -0.032000 7.125000 0.000000 0.000000 18.752000 -19.148800 12.232300 
-0.450489 17.153321 3.023979 -179.299208 -15.749300 176.209162 -4.053539 -3.840805 -1.483090 -15.420026 4.257415 -2.041037 2.395139 10.113235 24.684749 -0.295543 -17.319913 -3.573645 0.260100 3.280900 9.061900 3.411812 3.510597 -2.027002 12.754945 8.294635 -13.371995 -9.666066 -17.119322 54.621292 -0.057009 -4.168022 -11.424406 -1.283000 7.177900 -20.243400 -4.334724 1.594685 9.046470 0.172905 1.204339 -3.242377 -6.037165 0.038978 8.122769 -5.868302 -9.089515 -12.819836 12.460831 -16.053728 22.660356 2.337900 -7.204300 7.796700 -5.028277 -5.021889 3.551479 -64.908949 -16.545441 36.513355 24.534973 -36.599061 -8.502484 0.838705 1.588384 27.972930 30.366302 -14.171130 -9.320100 -7.125000 0.000000 0.000000 1.741600 11.320700 -1.366500 4.668335 4.267017 2.690296 82.733213 -12.444198 -26.535807 3.451579 10.419394 -0.447702 0.549327 -0.093939 51.071917 -0.017164 11.386292 -0.083400 7.125000 0.000000 0.000000 18.579000 -19.223000 12.073600 
